<?xml version="1.0" encoding="utf-8"?>
<!-- Generator: Adobe Illustrator 18.0.0, SVG Export Plug-In . SVG Version: 6.00 Build 0)  -->
<!DOCTYPE svg PUBLIC "-//W3C//DTD SVG 1.1//EN" "http://www.w3.org/Graphics/SVG/1.1/DTD/svg11.dtd">
<svg version="1.1" id="Layer_1" xmlns="http://www.w3.org/2000/svg" xmlns:xlink="http://www.w3.org/1999/xlink" x="0px" y="0px"
	 viewBox="0 55.5 180 69" enable-background="new 0 55.5 180 69" xml:space="preserve">
<g>
	<path fill="#FFFFFF" d="M78.5,70.3v2.5h4.1v1.4h-4.1V78h-1.8v-9.1h6v1.4C82.7,70.3,78.5,70.3,78.5,70.3z M90.9,76.2H87L86.3,78
		h-1.9l3-9.1h2.6l3.1,9.1h-1.8L90.9,76.2z M90.5,75l-1.7-4.8L87.3,75C87.3,75,90.5,75,90.5,75z M101.1,74.8h1.8v0.3
		c0,1.2-0.2,2.1-0.7,2.5c-0.4,0.4-1.4,0.5-3.1,0.5c-1.8,0-2.9-0.3-3.3-0.9s-0.6-2.2-0.6-4.8c0-1.5,0.3-2.5,0.8-3
		c0.5-0.5,1.8-0.7,3.5-0.7c1.3,0,2.2,0.2,2.6,0.6c0.4,0.4,0.6,1.1,0.6,2.3v0.2h-1.8v-0.2c0-0.6-0.1-0.9-0.3-1.1
		c-0.2-0.2-0.7-0.2-1.5-0.2c-1,0-1.8,0.1-2,0.4c-0.2,0.3-0.3,1-0.3,2.4c0,1.8,0.1,2.8,0.3,3.1s0.8,0.5,1.9,0.5
		c0.8,0,1.4-0.1,1.7-0.3c0.2-0.2,0.4-0.6,0.4-1.1C101,75.2,101.1,74.8,101.1,74.8z M107,70.3v2.4h4.2v1.2H107v2.6h4.5V78h-6.3v-9.1
		h6.2v1.4C111.4,70.3,107,70.3,107,70.3z M114.3,78v-9.1h4.4c1,0,1.8,0.2,2.2,0.5c0.4,0.3,0.6,0.9,0.6,1.9c0,1.1-0.4,1.8-1.3,2
		c1,0.2,1.5,0.9,1.5,2.2c0,0.9-0.2,1.5-0.6,2c-0.4,0.4-1.1,0.5-2.1,0.5h-4.8V78z M116.1,72.7h2.1c0.7,0,1.1-0.1,1.3-0.2
		c0.2-0.1,0.3-0.5,0.3-1c0-0.7-0.4-1.1-1.2-1.1h-2.5C116.1,70.3,116.1,72.7,116.1,72.7z M116.1,76.5h2.5c0.6,0,0.9-0.1,1.1-0.2
		c0.2-0.2,0.3-0.5,0.3-1c0-0.5-0.1-0.9-0.3-1c-0.2-0.1-0.6-0.2-1.4-0.2h-2.2C116.1,74,116.1,76.5,116.1,76.5z M128.3,68.8
		c1.7,0,2.7,0.3,3.2,0.8c0.5,0.5,0.7,1.8,0.7,3.7c0,2.1-0.2,3.4-0.7,3.9c-0.5,0.5-1.7,0.8-3.5,0.8c-1.7,0-2.7-0.3-3.2-0.8
		s-0.7-1.8-0.7-3.5c0-2.2,0.2-3.5,0.7-4.1C125.3,69.1,126.4,68.8,128.3,68.8z M128.2,70.2c-1.1,0-1.9,0.1-2.1,0.4
		c-0.2,0.3-0.3,1.3-0.3,3.1c0,1.3,0.1,2.1,0.3,2.4c0.2,0.3,0.9,0.4,2.1,0.4c1,0,1.8-0.1,2-0.4s0.3-1.2,0.3-2.7
		c0-1.5-0.1-2.4-0.3-2.7C129.9,70.4,129.3,70.2,128.2,70.2z M138.6,68.8c1.7,0,2.7,0.3,3.2,0.8c0.5,0.5,0.7,1.8,0.7,3.7
		c0,2.1-0.2,3.4-0.7,3.9c-0.5,0.5-1.7,0.8-3.5,0.8c-1.7,0-2.7-0.3-3.2-0.8c-0.5-0.5-0.7-1.8-0.7-3.5c0-2.2,0.2-3.5,0.7-4.1
		C135.6,69.1,136.7,68.8,138.6,68.8z M138.5,70.2c-1.1,0-1.9,0.1-2.1,0.4s-0.3,1.3-0.3,3.1c0,1.3,0.1,2.1,0.3,2.4s0.9,0.4,2.1,0.4
		c1,0,1.8-0.1,2-0.4c0.2-0.3,0.3-1.2,0.3-2.7c0-1.5-0.1-2.4-0.3-2.7C140.2,70.4,139.6,70.2,138.5,70.2z M147,68.9v3.7h0.8l3-3.7h2.2
		l-3.7,4.4l4,4.6h-2.2l-3.3-3.9H147V78h-1.8v-9.1H147L147,68.9z M76.7,94.4v-9.1h4.4c1.2,0,2.2,0.3,2.7,0.8c0.5,0.5,0.7,1.5,0.7,2.9
		c0,2.3-0.2,3.7-0.6,4.3c-0.4,0.6-1.3,0.9-2.8,0.9h-4.4V94.4z M78.5,92.9H81c0.8,0,1.3-0.2,1.7-0.6c0.2-0.4,0.4-1.2,0.4-2.5
		c0-1.3-0.1-2.2-0.3-2.6c-0.2-0.4-0.7-0.5-1.5-0.5h-2.7V92.9z M88.9,86.7v2.4h4.2v1.2h-4.2v2.6h4.5v1.4h-6.3v-9.1h6.2v1.4
		C93.4,86.7,88.9,86.7,88.9,86.7z M102.1,85.3h1.9l-2.9,9.1h-2.7l-2.9-9.1h1.8l1.8,5.2c0.2,0.5,0.4,1.3,0.7,2.5l0.2-0.6
		c0.2-0.7,0.4-1.3,0.5-1.9L102.1,85.3L102.1,85.3z M107.7,86.7v2.4h4.2v1.2h-4.2v2.6h4.5v1.4H106v-9.1h6.2v1.4
		C112.2,86.7,107.7,86.7,107.7,86.7z M116.8,85.3v7.5h4.2v1.5h-6v-9.1C115,85.3,116.8,85.3,116.8,85.3z M127.2,85.2
		c1.7,0,2.7,0.3,3.2,0.8c0.5,0.5,0.7,1.8,0.7,3.7c0,2.1-0.2,3.4-0.7,3.9c-0.5,0.5-1.7,0.8-3.5,0.8c-1.7,0-2.7-0.3-3.2-0.8
		c-0.5-0.5-0.7-1.8-0.7-3.5c0-2.2,0.2-3.5,0.7-4.1C124.2,85.5,125.4,85.2,127.2,85.2z M127.1,86.6c-1.1,0-1.9,0.1-2.1,0.4
		c-0.2,0.3-0.3,1.3-0.3,3.1c0,1.3,0.1,2.1,0.3,2.4c0.2,0.3,0.9,0.4,2.1,0.4c1,0,1.8-0.1,2-0.4c0.2-0.3,0.3-1.2,0.3-2.7
		c0-1.5-0.1-2.4-0.3-2.7C128.9,86.9,128.3,86.6,127.1,86.6z M133.8,94.4v-9.1h4.1c1.2,0,2.1,0.2,2.5,0.6c0.4,0.4,0.6,1.2,0.6,2.5
		s-0.2,2.1-0.6,2.5c-0.4,0.4-1.2,0.6-2.5,0.6h-2.5v2.9H133.8z M135.5,89.9h2c0.8,0,1.2-0.1,1.4-0.3c0.2-0.2,0.3-0.6,0.3-1.2
		c0-0.7-0.1-1.2-0.3-1.4c-0.2-0.2-0.6-0.3-1.3-0.3h-2.2v3.3H135.5z M145.2,86.7v2.4h4.2v1.2h-4.2v2.6h4.5v1.4h-6.3v-9.1h6.2v1.4
		H145.2L145.2,86.7z M152.5,94.4v-9.1h4.4c1.1,0,1.9,0.2,2.3,0.6s0.6,1.1,0.6,2.1c0,0.9-0.1,1.5-0.3,1.9c-0.2,0.3-0.6,0.6-1.3,0.7
		v0.1c1,0.1,1.5,0.6,1.5,1.8v2H158v-1.7c0-0.9-0.4-1.4-1.3-1.4h-2.5v3.1C154.2,94.4,152.5,94.4,152.5,94.4z M154.3,89.8h2.5
		c0.6,0,1-0.1,1.1-0.3c0.2-0.2,0.3-0.6,0.3-1.2s-0.1-1-0.2-1.2c-0.2-0.2-0.5-0.3-1.1-0.3h-2.6V89.8z M82.4,107.5h1.8v0.3
		c0,1.2-0.2,2.1-0.7,2.5c-0.4,0.4-1.4,0.5-3.1,0.5c-1.8,0-2.9-0.3-3.3-0.9s-0.6-2.2-0.6-4.8c0-1.5,0.3-2.5,0.8-3
		c0.5-0.5,1.8-0.7,3.5-0.7c1.3,0,2.2,0.2,2.6,0.6c0.4,0.4,0.6,1.1,0.6,2.3v0.2h-1.8v-0.2c0-0.6-0.1-0.9-0.3-1.1
		c-0.2-0.2-0.7-0.2-1.5-0.2c-1,0-1.8,0.1-2,0.4c-0.2,0.3-0.3,1-0.3,2.4c0,1.8,0.1,2.8,0.3,3.1c0.2,0.3,0.8,0.5,1.9,0.5
		c0.8,0,1.4-0.1,1.7-0.3s0.4-0.6,0.4-1.1C82.3,107.9,82.4,107.5,82.4,107.5z M90.5,101.6c1.7,0,2.7,0.3,3.2,0.8
		c0.5,0.5,0.7,1.8,0.7,3.7c0,2.1-0.2,3.4-0.7,3.9c-0.5,0.5-1.7,0.8-3.5,0.8c-1.7,0-2.7-0.3-3.2-0.8c-0.5-0.5-0.7-1.8-0.7-3.5
		c0-2.2,0.2-3.5,0.7-4.1C87.5,101.8,88.6,101.6,90.5,101.6z M90.4,103.1c-1.1,0-1.9,0.1-2.1,0.4c-0.2,0.3-0.3,1.3-0.3,3.1
		c0,1.3,0.1,2.1,0.3,2.4s0.9,0.4,2.1,0.4c1,0,1.8-0.1,2-0.4s0.3-1.2,0.3-2.7c0-1.5-0.1-2.4-0.3-2.7
		C92.1,103.2,91.5,103.1,90.4,103.1z M105.4,101.6v9.1h-2.9l-2.6-5c-0.1-0.2-0.3-0.7-0.6-1.3l-0.3-0.6l-0.3-0.6h-0.1v7.7h-1.5v-9.1
		h2.9l2.4,4.6c0.2,0.4,0.4,0.9,0.7,1.4l0.3,0.7l0.3,0.7h0.1v-7.6h1.7L105.4,101.6z M110.3,103.1v2.5h4.1v1.4h-4.1v3.7h-1.8v-9.1h6
		v1.4C114.5,103.1,110.3,103.1,110.3,103.1z M118.8,103.1v2.4h4.2v1.2h-4.2v2.6h4.5v1.4H117v-9.1h6.2v1.4
		C123.2,103.1,118.8,103.1,118.8,103.1z M126.1,110.7v-9.1h4.4c1.1,0,1.9,0.2,2.3,0.6c0.4,0.4,0.6,1.1,0.6,2.1s-0.1,1.5-0.3,1.9
		c-0.2,0.3-0.6,0.6-1.3,0.7v0.1c1,0.1,1.5,0.6,1.5,1.8v2h-1.8v-1.7c0-0.9-0.4-1.4-1.3-1.4h-2.5v3.1
		C127.7,110.7,126.1,110.7,126.1,110.7z M127.7,106.3h2.5c0.6,0,1-0.1,1.1-0.3c0.2-0.2,0.3-0.6,0.3-1.2c0-0.6-0.1-1-0.2-1.2
		c-0.1-0.2-0.5-0.3-1.1-0.3h-2.6C127.7,103.2,127.7,106.3,127.7,106.3z M137.9,103.1v2.4h4.2v1.2h-4.2v2.6h4.5v1.4h-6.3v-9.1h6.2
		v1.4H137.9L137.9,103.1z M153.7,101.6v9.1h-2.9l-2.6-5c-0.1-0.2-0.3-0.7-0.6-1.3l-0.3-0.6l-0.3-0.6h-0.1v7.7h-1.8v-9.1h2.9l2.4,4.6
		c0.2,0.4,0.4,0.9,0.7,1.4l0.3,0.7l0.3,0.7h0.1v-7.6h1.9V101.6z M162.4,107.5h1.8v0.3c0,1.2-0.2,2.1-0.7,2.5
		c-0.4,0.4-1.4,0.5-3.1,0.5c-1.8,0-2.9-0.3-3.3-0.9c-0.4-0.6-0.6-2.2-0.6-4.8c0-1.5,0.3-2.5,0.8-3s1.8-0.7,3.5-0.7
		c1.3,0,2.2,0.2,2.6,0.6c0.4,0.4,0.6,1.1,0.6,2.3v0.2h-1.8v-0.2c0-0.6-0.1-0.9-0.3-1.1c-0.2-0.2-0.7-0.2-1.5-0.2c-1,0-1.8,0.1-2,0.4
		c-0.2,0.3-0.3,1-0.3,2.4c0,1.8,0.1,2.8,0.3,3.1c0.2,0.3,0.8,0.5,1.9,0.5c0.8,0,1.4-0.1,1.7-0.3c0.2-0.2,0.4-0.6,0.4-1.1
		L162.4,107.5L162.4,107.5z M168.3,103.1v2.4h4.2v1.2h-4.2v2.6h4.5v1.4h-6.3v-9.1h6.2v1.4C172.8,103.1,168.3,103.1,168.3,103.1z"/>
</g>
<g>
	<path fill="#FFFFFF" d="M25.4,97.2h-2.7V82.4H33v2.5h-7.5v3.6H32V91h-6.6V97.2z M35.4,93.1c0-2,1-3.1,2.1-3.6
		c-0.9-0.5-1.8-1.7-1.8-3.2c0-3.1,2.5-4.2,5.4-4.2c2.9,0,5.4,1,5.4,4.2c0,1.5-0.7,2.7-1.8,3.2c1.1,0.4,2.1,1.5,2.1,3.6
		c0,2.8-1.9,4.3-5.8,4.3C37.2,97.5,35.4,95.9,35.4,93.1z M44.3,92.9c0-1.9-1.7-2.2-3.1-2.2s-3.1,0.3-3.1,2.2c0,1.4,1.2,2,3.1,2
		S44.3,94.4,44.3,92.9z M43.9,86.5c0-1.4-1.1-1.9-2.7-1.9s-2.7,0.4-2.7,1.9c0,1.7,1.3,2,2.7,2C42.5,88.5,43.9,88.2,43.9,86.5z"/>
</g>
<path fill="#FFFFFF" d="M34.8,120.4c-8.4,0-16.5-1.4-23.8-4c-1.2-0.5-2.3-1.5-2.8-2.9c-2.6-7.1-4-15.3-4-23.5s1.3-16.4,4-23.5
	c0.5-1.3,1.5-2.5,2.8-2.9c7.2-2.7,15.4-4,23.8-4s16.5,1.4,23.8,4c1.2,0.5,2.3,1.5,2.8,2.9c2.6,7.1,4,15.3,4,23.5s-1.3,16.4-4,23.5
	c-0.5,1.3-1.5,2.5-2.8,2.9C51.3,119,43.2,120.4,34.8,120.4z M34.8,62.4c-8,0-15.8,1.3-22.7,3.8c-0.4,0.2-0.8,0.5-1,1.1
	C8.6,74.1,7.2,82,7.2,89.8c0,8,1.3,15.7,3.8,22.5c0.2,0.5,0.5,0.9,1,1.1c6.8,2.5,14.7,3.8,22.7,3.8c8,0,15.8-1.3,22.7-3.8
	c0.4-0.2,0.8-0.5,1-1.1c2.5-6.8,3.8-14.7,3.8-22.5s-1.4-15.7-3.9-22.5c-0.2-0.5-0.5-0.9-1-1.1C50.6,63.7,42.8,62.4,34.8,62.4z"/>
</svg>
