<?xml version="1.0" encoding="UTF-8" standalone="no"?>
<svg width="62px" height="62px" viewBox="0 0 62 62" version="1.1" xmlns="http://www.w3.org/2000/svg" xmlns:xlink="http://www.w3.org/1999/xlink" xmlns:sketch="http://www.bohemiancoding.com/sketch/ns">
    <!-- Generator: Sketch 3.4.4 (17249) - http://www.bohemiancoding.com/sketch -->
    <title>f8-logo-w</title>
    <desc>Created with Sketch.</desc>
    <defs></defs>
    <g id="Page-1" stroke="none" stroke-width="1" fill="none" fill-rule="evenodd" sketch:type="MSPage">
        <g id="f8-logo-w" sketch:type="MSLayerGroup" fill="#082644">
            <path d="M21.4,38.2 L18.7,38.2 L18.7,23.4 L29,23.4 L29,25.9 L21.5,25.9 L21.5,29.5 L28,29.5 L28,32 L21.4,32 L21.4,38.2 L21.4,38.2 Z M31.4,34.1 C31.4,32.1 32.4,31 33.5,30.5 C32.6,30 31.7,28.8 31.7,27.3 C31.7,24.2 34.2,23.1 37.1,23.1 C40,23.1 42.5,24.1 42.5,27.3 C42.5,28.8 41.8,30 40.7,30.5 C41.8,30.9 42.8,32 42.8,34.1 C42.8,36.9 40.9,38.4 37,38.4 C33.2,38.5 31.4,36.9 31.4,34.1 L31.4,34.1 Z M40.3,33.9 C40.3,32 38.6,31.7 37.2,31.7 C35.8,31.7 34.1,32 34.1,33.9 C34.1,35.3 35.3,35.9 37.2,35.9 C39.1,35.9 40.3,35.4 40.3,33.9 L40.3,33.9 Z M39.9,27.5 C39.9,26.1 38.8,25.6 37.2,25.6 C35.6,25.6 34.5,26 34.5,27.5 C34.5,29.2 35.8,29.5 37.2,29.5 C38.5,29.5 39.9,29.2 39.9,27.5 L39.9,27.5 Z" id="Shape" sketch:type="MSShapeGroup"></path>
            <path d="M30.8,61.4 C22.4,61.4 14.3,60 7,57.4 C5.8,56.9 4.7,55.9 4.2,54.5 C1.6,47.4 0.2,39.2 0.2,31 C0.2,22.8 1.5,14.6 4.2,7.5 C4.7,6.2 5.7,5 7,4.6 C14.2,1.9 22.4,0.6 30.8,0.6 C39.2,0.6 47.3,2 54.6,4.6 C55.8,5.1 56.9,6.1 57.4,7.5 C60,14.6 61.4,22.8 61.4,31 C61.4,39.2 60.1,47.4 57.4,54.5 C56.9,55.8 55.9,57 54.6,57.4 C47.3,60 39.2,61.4 30.8,61.4 L30.8,61.4 Z M30.8,3.4 C22.8,3.4 15,4.7 8.1,7.2 C7.7,7.4 7.3,7.7 7.1,8.3 C4.6,15.1 3.2,23 3.2,30.8 C3.2,38.8 4.5,46.5 7,53.3 C7.2,53.8 7.5,54.2 8,54.4 C14.8,56.9 22.7,58.2 30.7,58.2 C38.7,58.2 46.5,56.9 53.4,54.4 C53.8,54.2 54.2,53.9 54.4,53.3 C56.9,46.5 58.2,38.6 58.2,30.8 C58.2,23 56.8,15.1 54.3,8.3 C54.1,7.8 53.8,7.4 53.3,7.2 C46.6,4.7 38.8,3.4 30.8,3.4 L30.8,3.4 Z" id="Shape" sketch:type="MSShapeGroup"></path>
        </g>
    </g>
</svg>